<svg width="220" height="220" viewBox="0 0 220 220" fill="none" xmlns="http://www.w3.org/2000/svg">
  <defs>
    <filter id="shadow" x="32" y="8" width="156" height="204" filterUnits="userSpaceOnUse" color-interpolation-filters="sRGB">
      <feDropShadow dx="0" dy="10" stdDeviation="8" flood-color="#6A4031" flood-opacity="0.16"/>
    </filter>
    <linearGradient id="hair" x1="110" y1="30" x2="110" y2="132" gradientUnits="userSpaceOnUse">
      <stop stop-color="#D4B08B"/>
      <stop offset="1" stop-color="#BE9370"/>
    </linearGradient>
    <linearGradient id="skin" x1="110" y1="54" x2="110" y2="148" gradientUnits="userSpaceOnUse">
      <stop stop-color="#FFF4E9"/>
      <stop offset="1" stop-color="#F7E2D3"/>
    </linearGradient>
    <linearGradient id="cloth" x1="110" y1="138" x2="110" y2="200" gradientUnits="userSpaceOnUse">
      <stop stop-color="#F2F2F2"/>
      <stop offset="1" stop-color="#DADADA"/>
    </linearGradient>
  </defs>

  <g filter="url(#shadow)">
    <ellipse cx="110" cy="196" rx="42" ry="10" fill="#8F6551" fill-opacity="0.15"/>

    <path d="M97 24C103 19 117 19 123 24C127 28 128 34 126 39H94C92 34 93 28 97 24Z" fill="url(#hair)" stroke="#7E584A" stroke-width="2.6" stroke-linejoin="round"/>
    <path d="M78 46C90 28 129 26 143 44C154 58 158 74 157 95C156 122 139 144 110 146C81 144 64 122 63 95C62 75 67 59 78 46Z" fill="url(#hair)" stroke="#7E584A" stroke-width="2.8" stroke-linejoin="round"/>

    <path d="M80 45C72 50 67 62 68 74C73 73 79 68 85 60C89 53 89 48 80 45Z" fill="#DABD9D" stroke="#7E584A" stroke-width="2.4" stroke-linejoin="round"/>
    <path d="M140 45C148 50 153 62 152 74C147 73 141 68 135 60C131 53 131 48 140 45Z" fill="#DABD9D" stroke="#7E584A" stroke-width="2.4" stroke-linejoin="round"/>

    <path d="M84 46C92 41 100 39 110 39C120 39 128 41 136 46C134 58 129 67 120 76C117 79 114 81 110 82C106 81 103 79 100 76C91 67 86 58 84 46Z" fill="url(#skin)"/>
    <path d="M81 46C88 39 99 34 110 34C121 34 132 39 139 46C137 60 132 71 121 81C118 84 114 86 110 87C106 86 102 84 99 81C88 71 83 60 81 46Z" fill="url(#skin)" stroke="#7E584A" stroke-width="2.4" stroke-linejoin="round"/>

    <path d="M89 44C94 52 97 64 96 82" stroke="#7E584A" stroke-width="2" stroke-linecap="round"/>
    <path d="M102 42C104 53 105 66 104 84" stroke="#7E584A" stroke-width="2" stroke-linecap="round"/>
    <path d="M118 42C116 53 115 66 116 84" stroke="#7E584A" stroke-width="2" stroke-linecap="round"/>
    <path d="M131 44C126 52 123 64 124 82" stroke="#7E584A" stroke-width="2" stroke-linecap="round"/>

    <path d="M79 62C83 57 87 54 92 52C90 65 83 79 73 92C66 101 59 108 53 112C53 92 61 74 79 62Z" fill="#D2AA86" stroke="#7E584A" stroke-width="2.6" stroke-linejoin="round"/>
    <path d="M141 52C146 54 150 57 154 62C172 74 180 92 180 112C174 108 167 101 160 92C150 79 143 65 141 52Z" fill="#D2AA86" stroke="#7E584A" stroke-width="2.6" stroke-linejoin="round"/>

    <path d="M88 138C92 127 100 120 110 120C120 120 128 127 132 138L137 186C137 193 125 198 110 198C95 198 83 193 83 186L88 138Z" fill="url(#cloth)" stroke="#7E584A" stroke-width="2.6" stroke-linejoin="round"/>
    <path d="M89 139H131" stroke="#B9B9B9" stroke-width="2"/>
    <path d="M95 129C100 126 105 124 110 124C115 124 120 126 125 129" stroke="#C7C7C7" stroke-width="2" stroke-linecap="round"/>

    <ellipse cx="92" cy="104" rx="14" ry="11" fill="#F2A99F" fill-opacity="0.45"/>
    <ellipse cx="128" cy="104" rx="14" ry="11" fill="#F2A99F" fill-opacity="0.45"/>

    <ellipse cx="92" cy="92" rx="12" ry="14" fill="#FFF"/>
    <ellipse cx="128" cy="92" rx="12" ry="14" fill="#FFF"/>
    <ellipse cx="94" cy="95" rx="7" ry="8" fill="#A96B49"/>
    <ellipse cx="126" cy="95" rx="7" ry="8" fill="#A96B49"/>
    <circle cx="97" cy="92" r="2.2" fill="#FFF7EE"/>
    <circle cx="123" cy="92" r="2.2" fill="#FFF7EE"/>
    <path d="M82 77C87 73 94 73 99 77" stroke="#7E584A" stroke-width="2.4" stroke-linecap="round"/>
    <path d="M121 77C126 73 133 73 138 77" stroke="#7E584A" stroke-width="2.4" stroke-linecap="round"/>
    <path d="M106 104C108 106 112 106 114 104" stroke="#9F6E59" stroke-width="2" stroke-linecap="round"/>
    <path d="M103 111C107 114 113 114 117 111" stroke="#7E584A" stroke-width="2.4" stroke-linecap="round"/>
    <path d="M140 104C144 107 145 111 144 116" stroke="#D69C92" stroke-width="3" stroke-linecap="round"/>

    <rect x="82" y="120" width="56" height="36" rx="6" fill="#FFFDF9" stroke="#7E584A" stroke-width="2.2"/>
    <path d="M95 133H125" stroke="#4E4E4E" stroke-width="1.8" stroke-linecap="round"/>
    <path d="M94 144H111" stroke="#4E4E4E" stroke-width="1.8" stroke-linecap="round"/>
    <path d="M116 144H127" stroke="#4E4E4E" stroke-width="1.8" stroke-linecap="round"/>
    <path d="M85 122L82 136" stroke="#7E584A" stroke-width="2.2" stroke-linecap="round"/>
    <path d="M135 122L138 136" stroke="#7E584A" stroke-width="2.2" stroke-linecap="round"/>

    <path d="M164 61C170 59 176 62 179 68" stroke="#E3A39A" stroke-width="3.2" stroke-linecap="round"/>
    <path d="M168 76C175 75 181 79 183 85" stroke="#E3A39A" stroke-width="3.2" stroke-linecap="round"/>
    <path d="M162 90C169 89 175 93 177 99" stroke="#E3A39A" stroke-width="3.2" stroke-linecap="round"/>
  </g>
</svg>