<svg width="160" height="160" viewBox="0 0 160 160" fill="none" xmlns="http://www.w3.org/2000/svg">
  <ellipse cx="80" cy="140" rx="38" ry="10" fill="#B7844E" fill-opacity="0.18"/>
  <ellipse cx="80" cy="84" rx="44" ry="40" fill="#F6B85E"/>
  <ellipse cx="80" cy="96" rx="28" ry="22" fill="#FFF5E8"/>
  <ellipse cx="56" cy="44" rx="12" ry="22" transform="rotate(-18 56 44)" fill="#E79C33"/>
  <ellipse cx="104" cy="44" rx="12" ry="22" transform="rotate(18 104 44)" fill="#E79C33"/>
  <circle cx="62" cy="78" r="4" fill="#5A3612"/>
  <circle cx="98" cy="78" r="4" fill="#5A3612"/>
  <path d="M72 92C74.8 95.2 85.2 95.2 88 92" stroke="#5A3612" stroke-width="4" stroke-linecap="round"/>
  <circle cx="80" cy="88" r="3" fill="#D66A59"/>
  <ellipse cx="62" cy="118" rx="10" ry="8" fill="#F9DEAF"/>
  <ellipse cx="98" cy="118" rx="10" ry="8" fill="#F9DEAF"/>
  <path d="M116 92C121 88 127 88 132 92" stroke="#E79C33" stroke-width="6" stroke-linecap="round"/>
</svg>